<?xml version="1.0" encoding="utf-8"?>
<!DOCTYPE svg PUBLIC "-//W3C//DTD SVG 1.1//EN" "http://www.w3.org/Graphics/SVG/1.1/DTD/svg11.dtd">
<svg version="1.1" id="Layer_1" xmlns="http://www.w3.org/2000/svg" xmlns:xlink="http://www.w3.org/1999/xlink" x="0px" y="0px"
	 width="229.16px" height="30px" viewBox="0 0 229.16 30" enable-background="new 0 0 229.16 30" xml:space="preserve">
<path display="none" fill="#ED1C24" d="M50.126,17.052l7.675,0.007l-4.054-6.542l-7.44,11.839l-3.398-0.002l9.057-14.169
	c0.689-0.97,2.036-1.197,3.006-0.507c0.197,0.14,0.369,0.313,0.509,0.509l9.081,14.208l-3.363-0.002l-1.593-2.639l-7.78-0.006
	L50.126,17.052 M85.278,19.715V7.435l-2.836-0.001v13.521c0,0.375,0.152,0.736,0.422,0.997c0.275,0.279,0.651,0.436,1.043,0.434
	l13.112,0.011l1.675-2.636l-13.37-0.01 M37.764,17.511c2.792-0.134,4.945-2.506,4.81-5.298c-0.127-2.602-2.208-4.685-4.81-4.813
	l-12.595-0.01V22.34l2.87,0.003V10.004l9.515,0.008c1.336,0.094,2.343,1.254,2.249,2.591c-0.085,1.205-1.044,2.164-2.249,2.248
	l-8.109-0.006l8.59,7.482l4.17,0.003l-5.764-4.82L37.764,17.511 M7.475,22.327l8.695,0.007c4.129,0.003,7.476-3.342,7.476-7.471
	c0-4.128-3.347-7.478-7.476-7.481l0,0L7.476,7.376c-4.128-0.05-7.514,3.255-7.562,7.384c-0.048,4.128,3.26,7.516,7.389,7.566
	C7.361,22.326,7.418,22.326,7.475,22.327 M15.971,19.697l-8.308-0.006c-2.673-0.002-4.84-2.171-4.839-4.844
	c0-2.673,2.167-4.838,4.839-4.835l0,0l8.308,0.007c2.672,0.002,4.839,2.17,4.839,4.843C20.81,17.535,18.644,19.699,15.971,19.697
	 M70.573,22.376l8.87,0.006l1.675-2.635l-10.346-0.008c-2.672-0.003-4.839-2.171-4.839-4.843s2.167-4.837,4.839-4.835l8.437,0.006
	l1.699-2.646L70.573,7.413c-4.128-0.051-7.514,3.255-7.562,7.383c-0.048,4.128,3.26,7.516,7.388,7.567c0.058,0,0.115,0,0.173,0
	 M105.725,19.755c-2.175,0.013-4.092-1.427-4.687-3.521l12.291,0.011l1.771-2.658l-14.062-0.01c0.595-2.092,2.512-3.528,4.687-3.512
	l8.436,0.006l1.687-2.647l-10.31-0.008c-4.129-0.003-7.476,3.342-7.476,7.471c0,4.128,3.347,7.478,7.476,7.481l0,0l8.87,0.006
	l1.686-2.635l-10.37-0.009 M117.443,9.02c0-0.731,0.592-1.324,1.324-1.324c0.73,0,1.324,0.594,1.324,1.325s-0.592,1.324-1.324,1.324
	c0,0,0,0,0,0c-0.719,0-1.305-0.572-1.324-1.29 M118.768,10.732c0.925-0.006,1.67-0.761,1.664-1.686
	c-0.007-0.925-0.762-1.671-1.688-1.665c-0.921,0.006-1.664,0.753-1.664,1.674c-0.007,0.918,0.732,1.669,1.65,1.677
	C118.742,10.732,118.755,10.732,118.768,10.732 M118.615,8.06c0.166-0.025,0.336-0.025,0.503,0c0.222,0.078,0.365,0.293,0.353,0.528
	c0.002,0.051,0.002,0.102,0,0.152c-0.025,0.139-0.111,0.259-0.234,0.328h-0.07l0.434,0.786h-0.423l-0.387-0.727h-0.257v0.726h-0.375
	V8.059h0.468 M118.756,8.915c0.115,0.018,0.23-0.027,0.305-0.117c0.021-0.048,0.021-0.104,0-0.153
	c0.001-0.098-0.053-0.189-0.141-0.234c-0.116-0.024-0.236-0.024-0.352,0h-0.094v0.492h0.233"/>
	<path display="none" d="M134.584,22.484l3.727,0.002V10.03l-2.566-0.002v9.503l-4.51-9.471l-0.024-0.035l-3.914-0.003v12.455
	l2.613,0.002V12.45l4.663,9.999L134.584,22.484z M140.982,22.489l8.553,0.006v-2.167l-5.801-0.005v-3.21l5.262,0.004v-2.133
	l-5.26-0.004v-2.812l5.611,0.004V10.04l-8.365-0.007V22.489z M157.279,22.501V12.214l3.669,0.002V10.05l-10.112-0.008v2.168
	l3.668,0.002V22.5L157.279,22.501z M164.1,18.85c0,0.856,0.141,2.438,2.965,2.44c2.555,0.002,2.883-1.58,2.883-2.2
	c0-1.383-1.113-1.652-2.836-2.088c-1.165-0.182-2.293-0.551-3.34-1.092c-0.823-0.528-1.308-1.45-1.276-2.427
	c0-2.507,2.343-3.595,4.687-3.594c1.281-0.093,2.547,0.33,3.516,1.175c0.496,0.585,0.762,1.331,0.75,2.098l-1.771-0.001
	c-0.081-1.536-1.382-1.876-2.59-1.877c-1.71-0.002-2.729,0.771-2.729,1.99c0,1.218,0.715,1.465,2.215,1.83
	c2.93,0.751,3.258,0.822,3.972,1.303c0.786,0.565,1.229,1.494,1.172,2.461c0,2.18-1.71,3.842-4.862,3.84
	c-1.414,0.103-2.805-0.406-3.82-1.397c-0.518-0.721-0.77-1.599-0.715-2.484L164.1,18.85z M176.134,10.119v7.628
	c-0.067,0.778,0.126,1.558,0.55,2.215c0.698,0.816,1.742,1.252,2.813,1.174c1.666,0.187,3.166-1.015,3.351-2.68
	c0.03-0.277,0.023-0.558-0.022-0.833v-7.499l1.652,0.001v7.617c0.059,1.174-0.299,2.331-1.008,3.268
	c-0.99,1.124-2.428,1.75-3.926,1.708c-1.678,0.073-3.29-0.655-4.348-1.96c-0.577-0.927-0.828-2.02-0.715-3.105v-7.534
	L176.134,10.119z M188.016,10.128l1.709,0.002v12.338l-1.709-0.002V10.128z M196.311,22.473V11.61l-4.125-0.003V10.13l9.948,0.008
	v1.453l-4.124-0.003V22.45L196.311,22.473z M204.15,10.14l7.721,0.007V11.6l-6.023-0.005v3.843l5.73,0.005v1.43l-5.73-0.005v4.089
	L212,20.962v1.5l-7.85-0.006V10.14z"/>
	<g>
	<g>
		<g>
			<path fill="#312D2A" d="M132.74,23.016V8.098h2.918l6.485,9.729V8.098h3.136v14.918h-2.919l-6.485-9.729v9.729H132.74
				L132.74,23.016z"/>
			<path fill="#312D2A" d="M148.521,23.016V8.098h9.729v2.703h-6.485v3.351h5.945v2.702h-5.945v3.459h6.701v2.703H148.521z"/>
			<path fill="#312D2A" d="M164.52,23.016V10.801h-4.432V8.098h11.998v2.703h-4.432v12.215H164.52z"/>
			<path fill="#312D2A" d="M174.14,22.366v-1.621c1.514,0.649,2.919,0.973,4.324,0.973c1.188,0,2.054-0.216,2.702-0.648
				s0.973-1.081,0.973-1.837c0-0.541-0.216-1.082-0.648-1.406c-0.432-0.432-1.08-0.756-2.161-1.188l-1.622-0.649
				c-1.297-0.54-2.27-1.08-2.918-1.729c-0.541-0.649-0.865-1.405-0.865-2.271c0-1.188,0.433-2.162,1.405-2.918
				c0.973-0.756,2.162-1.081,3.783-1.081c0.648,0,1.405,0.107,2.054,0.216c0.757,0.108,1.297,0.324,1.838,0.649v1.729
				c-1.405-0.648-2.702-0.864-3.892-0.864c-2.27,0-3.351,0.757-3.351,2.27c0,0.541,0.216,0.973,0.648,1.298
				c0.433,0.324,1.081,0.756,2.054,1.08l1.622,0.649c1.404,0.541,2.377,1.082,2.918,1.837c0.54,0.648,0.865,1.514,0.865,2.379
				c0,1.297-0.434,2.378-1.406,3.134c-0.973,0.757-2.27,1.081-3.999,1.081c-0.541,0-1.081,0-1.621-0.108
				c-0.541-0.107-1.081-0.216-1.622-0.323C174.896,22.691,174.464,22.583,174.14,22.366z"/>
			<path fill="#312D2A" d="M186.463,16.313V8.098h1.945v8.215c0,1.838,0.324,3.136,0.974,4c0.648,0.865,1.621,1.298,2.918,1.298
				s2.378-0.433,2.919-1.298c0.648-0.864,0.973-2.162,0.973-4V8.098h1.945v8.215c0,2.379-0.432,4.108-1.404,5.298
				c-0.974,1.081-2.379,1.729-4.324,1.729c-1.946,0-3.351-0.54-4.324-1.729C186.896,20.421,186.463,18.691,186.463,16.313z"/>
			<path fill="#312D2A" d="M201.38,23.016V8.098h1.945v14.918H201.38z"/>
			<path fill="#312D2A" d="M210.567,23.016V9.72h-4.756V8.098h11.351V9.72h-4.757v13.296H210.567z"/>
			<path fill="#312D2A" d="M219.756,23.016V8.098h9.188V9.72h-7.243v4.864h6.702v1.621h-6.702v5.08h7.459v1.622h-9.404V23.016z"/>
		</g>
		<g>
			<path fill="#312D2A" d="M52.75,17.719h8.107l-4.216-6.918l-7.783,12.431h-3.567l9.512-14.917
				c0.432-0.649,1.081-0.973,1.837-0.973c0.649,0.108,1.298,0.432,1.73,0.973l9.512,14.917h-3.567l-1.622-2.702h-8.215L52.75,17.719
				 M89.719,20.529V7.558h-3.027v14.269c0,0.432,0.216,0.757,0.432,1.081c0.324,0.324,0.648,0.432,1.081,0.432h13.836l1.837-2.81
				H89.719 M39.671,18.15c2.918,0,5.296-2.378,5.296-5.296c0-2.918-2.378-5.297-5.296-5.297H26.483v15.781h3.027V10.368h10.053
				c1.405,0,2.595,1.081,2.595,2.486c0,1.405-1.189,2.594-2.595,2.594h-8.539l9.08,7.89h4.432l-6.054-5.08h1.189 M7.891,23.231
				h9.188c4.324,0,7.891-3.567,7.891-7.891S21.511,7.45,17.079,7.45H7.891C3.567,7.45,0,11.017,0,15.34
				C0,19.771,3.567,23.231,7.891,23.231 M16.754,20.529H8.107c-2.811,0-5.08-2.271-5.08-5.081c0-2.811,2.27-5.081,5.08-5.081h8.756
				c2.81,0,5.08,2.27,5.08,5.081C21.943,18.259,19.673,20.529,16.754,20.529 M74.261,23.231h9.296l1.73-2.811h-10.81
				c-2.811,0-5.08-2.271-5.08-5.081c0-2.811,2.27-5.081,5.08-5.081h8.864l1.837-2.81H74.261c-4.324,0-7.891,3.567-7.891,7.891
				C66.37,19.771,69.937,23.231,74.261,23.231 M111.229,20.529c-2.377,0-4.323-1.514-4.863-3.676h12.971l1.729-2.811h-14.7
				c0.648-2.162,2.594-3.675,4.863-3.675h8.864l1.729-2.811h-10.81c-4.323,0-7.891,3.567-7.891,7.891c0,4.323,3.567,7.89,7.891,7.89
				h9.297l1.729-2.81H111.229"/>
		</g>
	</g>
</g>
</svg>
